# xmcd
#
# Track frame offsets: 
#        150
#        14265
#        24624
#        39315
#        59481
#        73836
#        91137
#        109825
#        124660
#        154257
#        174390
#        184432
#        196577
#
# Disc length: 2895 seconds
#
# Revision: 0
# Processed by: cddbd v1.5.2PL0 Copyright (c) Steve Scherf et al.
# Submitted via: ExactAudioCopy v0.99pb4
#
DISCID=ab0b4d0d
DTITLE=Various Artist - A Warner Chappell Christmas 2007 [CD1]
DYEAR=2007
DGENRE=Christmas/Holiday
TTITLE0=Mary Wells - Jingle Bell Rock
TTITLE1=The O'Jays - Christmas Ain't Christmas New Year's Ain't New Ye
TTITLE1=ars Without The One You Love
TTITLE2=John Prine - Christmas In Prison
TTITLE3=Hall and Oates - Christmas Must Be Tonight
TTITLE4=Doris Day - The Christmas Story
TTITLE5=Aimee Mann - Winter Wonderland
TTITLE6=Jay Leonhart - Christmas In The City
TTITLE7=Spike Jones - All I Want For Christmas (Is My Two Front Teeth)
TTITLE8=James Brown - Let's Make Christmas Mean Something This Year
TTITLE9=Abre Moore - Merry Christmas Baby
TTITLE10=Carpenters - An Old Fashioned Christmas
TTITLE11=Mitch Miller - Be A Santa
TTITLE12=Wynn Varble - (What The Hell) It's The Holidays (Demo)
EXTD=
EXTT0=
EXTT1=
EXTT2=
EXTT3=
EXTT4=
EXTT5=
EXTT6=
EXTT7=
EXTT8=
EXTT9=
EXTT10=
EXTT11=
EXTT12=
PLAYORDER=
